<?xml version="1.0" encoding="UTF-8" standalone="no"?>
<svg
   width="998.78925"
   height="267"
   viewBox="0 0 998.78924 267"
   fill="none"
   version="1.1"
   id="svg12"
   sodipodi:docname="logo-white.svg"
   inkscape:version="1.4.2 (ebf0e940d0, 2025-05-08)"
   xmlns:inkscape="http://www.inkscape.org/namespaces/inkscape"
   xmlns:sodipodi="http://sodipodi.sourceforge.net/DTD/sodipodi-0.dtd"
   xmlns="http://www.w3.org/2000/svg"
   xmlns:svg="http://www.w3.org/2000/svg">
  <defs
     id="defs12" />
  <sodipodi:namedview
     id="namedview12"
     pagecolor="#ffffff"
     bordercolor="#000000"
     borderopacity="0.25"
     inkscape:showpageshadow="2"
     inkscape:pageopacity="0.0"
     inkscape:pagecheckerboard="0"
     inkscape:deskcolor="#d1d1d1"
     inkscape:zoom="0.85785463"
     inkscape:cx="405.66314"
     inkscape:cy="-164.94636"
     inkscape:window-width="3072"
     inkscape:window-height="1656"
     inkscape:window-x="0"
     inkscape:window-y="0"
     inkscape:window-maximized="1"
     inkscape:current-layer="svg12" />
  <path
     d="M 33.4766,47.9531 C 39.2335,51.3598 42.784,55.6871 45,62 c 0.4107,2.5452 0.4107,2.5452 0.6328,5.2539 0.084,1.0107 0.1679,2.0214 0.2544,3.0627 0.0785,1.0712 0.157,2.1423 0.2378,3.2459 0.0849,1.1001 0.1698,2.2003 0.2573,3.3337 C 47.1025,86.9414 47.2024,96.9355 47,107 c 0.5517,-0.322 1.1034,-0.645 1.6719,-0.977 4.7761,-2.099 10.4888,-1.794 15.4726,-0.441 9.3396,4.166 16.4526,12.949 23.532,20.113 3.2977,3.325 6.7,6.434 10.2649,9.465 3.1296,2.797 6.0466,5.802 8.9876,8.793 2.632,2.66 5.316,5.161 8.196,7.547 12.603,10.872 20.879,25.504 22.159,42.203 0.11,4.132 0.134,8.254 0.114,12.387 0.002,1.518 0.005,3.036 0.009,4.553 0.005,3.156 -0.002,6.312 -0.016,9.468 -0.017,4.037 -0.007,8.073 0.011,12.111 0.011,3.123 0.007,6.247 -10e-4,9.37 -0.002,1.489 10e-4,2.979 0.008,4.468 0.008,2.076 -0.004,4.152 -0.021,6.229 -0.002,1.178 -0.005,2.357 -0.007,3.571 -0.427,3.518 -1.205,5.359 -3.381,8.14 -3.318,2.415 -6.509,2.259 -10.525,2.275 -0.646,0.005 -1.292,0.01 -1.958,0.015 -2.129,0.014 -4.259,0.013 -6.388,0.011 -1.485,0.004 -2.969,0.008 -4.453,0.013 -3.11,0.007 -6.219,0.007 -9.329,0.002 -3.9787,-0.006 -7.9574,0.011 -11.9364,0.034 -3.0653,0.015 -6.1305,0.016 -9.1958,0.013 -1.4667,0 -2.9335,0.005 -4.4003,0.015 -2.0536,0.013 -4.1063,0.006 -6.16,-0.006 -1.7506,10e-4 -1.7506,10e-4 -3.5366,0.002 C 62.6322,265.956 60.7887,265.101 58,263 55.3516,259.027 56.1555,256.067 56.6055,251.539 61.5,214 58.8398,215.059 49.5,207.5 43.5832,201.116 36.0922,196.883 29.2139,191.563 26.2414,189.254 23.6126,186.714 21,184 20.282,183.303 19.564,182.605 18.8242,181.887 14.106,177.03 10.6542,172.072 7.62501,166.062 7.30363,165.431 6.98225,164.8 6.65113,164.149 2.17457,154.821 0.514426,145.793 0.687509,135.5 0.697338,134.36 0.707167,133.22 0.717294,132.046 0.897703,118.777 1.39641,105.511 1.87501,92.25 1.93355,90.5444 1.93355,90.5444 1.99326,88.8044 2.10855,85.5202 2.236,82.2367 2.3672,78.9531 2.40065,77.9676 2.4341,76.9821 2.46856,75.9667 2.8837,66.2717 4.60383,58.5713 11,51 17.2298,45.7873 25.8657,45.024 33.4766,47.9531 Z"
     fill="#fd7a12"
     id="path1"
     style="fill:#f27c02;fill-opacity:1" />
  <path
     d="m 275.656,48.0078 c 6.035,3.5203 9.115,8.4636 11.344,14.9922 1.119,5.4022 1.312,10.7899 1.535,16.2851 0.043,1.0014 0.087,2.0027 0.131,3.0345 0.138,3.2474 0.269,6.495 0.396,9.7429 0.066,1.6551 0.066,1.6551 0.132,3.3437 2.55,65.6488 2.55,65.6488 -20.359,90.6388 -7.89,8.406 -15.99,16.662 -24.789,24.121 -0.675,0.605 -1.35,1.21 -2.046,1.834 -0.512,0.399 -1.025,0.797 -1.553,1.208 -2.459,2.095 -4.177,3.718 -4.98,6.911 -0.19,2.512 -0.194,4.961 -0.131,7.479 -0.006,1.367 -0.006,1.367 -0.013,2.763 -0.011,2.901 0.017,5.8 0.052,8.701 0.024,2.905 0.039,5.808 0.03,8.713 -0.004,1.803 0.01,3.606 0.047,5.409 -0.002,4.142 -0.102,6.257 -2.352,9.845 -3.51,3.294 -5.752,3.109 -10.49,3.148 -0.655,0.007 -1.311,0.013 -1.986,0.02 -2.173,0.02 -4.346,0.031 -6.519,0.041 -1.113,0.006 -1.113,0.006 -2.248,0.013 -3.929,0.02 -7.857,0.035 -11.786,0.044 -4.055,0.011 -8.11,0.046 -12.166,0.085 -3.12,0.026 -6.24,0.035 -9.36,0.038 -1.495,0.005 -2.99,0.017 -4.484,0.035 -2.095,0.025 -4.188,0.024 -6.283,0.017 -1.786,0.009 -1.786,0.009 -3.609,0.018 -3.804,-0.586 -5.447,-1.821 -8.169,-4.488 -1.45,-2.9 -1.159,-5.45 -1.193,-8.69 -0.008,-0.688 -0.016,-1.377 -0.025,-2.086 -0.025,-2.287 -0.041,-4.574 -0.055,-6.861 -0.006,-0.785 -0.011,-1.569 -0.017,-2.378 -0.026,-4.167 -0.046,-8.334 -0.06,-12.501 -0.013,-3.425 -0.041,-6.849 -0.082,-10.273 -0.05,-4.152 -0.074,-8.304 -0.081,-12.456 -0.007,-1.571 -0.022,-3.141 -0.046,-4.711 -0.269,-18.483 4.923,-33.258 17.927,-46.799 3.478,-3.544 7.022,-7.02 10.569,-10.495 1.443,-1.431 2.885,-2.864 4.327,-4.297 1.399,-1.386 2.8,-2.772 4.201,-4.156 0.637,-0.629 1.273,-1.259 1.929,-1.907 3.825,-3.746 7.755,-7.325 11.819,-10.809 2.22,-1.964 4.259,-4.063 6.299,-6.211 11.286,-11.836 11.286,-11.836 19.605,-12.69 4.229,-0.071 7.855,-0.023 11.883,1.32 0.065,-1.25 0.129,-2.5 0.196,-3.789 0.248,-4.6789 0.525,-9.3561 0.811,-14.0333 0.119,-2.0168 0.231,-4.0341 0.334,-6.0518 1.232,-23.8361 1.232,-23.8361 8.677,-31.0932 6.466,-5.4086 14.876,-5.9699 22.638,-3.0249 z"
     fill="#2393ed"
     id="path2"
     style="fill:#1387e5;fill-opacity:1" />
  <path
     d="M 129.324,8.18753 C 135.525,12.3875 140.741,17.7052 146,23 c 0.766,-0.9436 0.766,-0.9436 1.547,-1.9062 9.564,-11.26013 20.64,-18.64916 35.519,-20.468769 12.163,-0.507422 24.095,4.232169 33.122,12.339869 10.668,11.1739 13.228,22.5402 13.023,37.3281 -0.17,5.3368 -1.031,9.8193 -3.211,14.707 -0.402,0.9488 -0.804,1.8975 -1.219,2.875 -5.513,12.0065 -14.502,21.1535 -23.785,30.3594 -0.923,0.9223 -1.845,1.8446 -2.796,2.7946 -1.934,1.933 -3.871,3.862 -5.811,5.788 -2.465,2.448 -4.923,4.902 -7.379,7.359 -2.377,2.376 -4.758,4.748 -7.139,7.121 -0.871,0.87 -1.742,1.74 -2.639,2.636 -4.924,4.886 -9.957,9.564 -15.232,14.067 -0.812,0.719 -1.624,1.439 -2.461,2.18 -0.632,0.559 -1.263,1.119 -1.914,1.695 -0.647,0.575 -1.294,1.15 -1.961,1.742 -3.273,2.72 -6.094,2.85 -10.238,2.778 -7.442,-1.211 -13.014,-8.865 -18.008,-13.973 -1.977,-1.98 -3.968,-3.811 -6.105,-5.609 -4.161,-3.551 -7.967,-7.43 -11.813,-11.313 -5.585,-5.675 -5.585,-5.675 -11.5,-11 C 79.0232,90.0605 62.7984,72.3833 60.6484,49.211 60.0324,36.9746 63.0641,26.4777 71.125,16.9922 87.3298,-0.225336 108.62,-3.7978 129.324,8.18753 Z"
     fill="#52cd72"
     id="path3"
     style="fill:#39c45c;fill-opacity:1" />
  <path
     fill-rule="evenodd"
     clip-rule="evenodd"
     d="m 856.63246,33.892411 -4.37782,0.0097 c -0.4243,8.73e-4 -0.84236,-0.002 -1.25044,-0.0049 -4.67234,-0.0322 -8.14788,-0.05616 -8.84674,5.690786 l -0.0499,3.610949 -0.0749,4.087791 -0.0437,4.427859 c -0.0761,4.664969 -0.14851,9.329813 -0.20466,13.995032 -0.0387,3.251539 -0.0824,6.503078 -0.13104,9.754492 -0.13353,8.704216 -0.25832,17.408556 -0.36565,26.11265 l -0.0299,2.54207 -1.24795,-2.4959 C 826.0801,88.999724 810.94618,86.084758 792.80221,86.394125 c -17.3378,0.615864 -33.28912,8.425423 -45.06355,21.039345 l -2.57327,2.9252 c -11.26527,12.53692 -16.34193,27.10801 -18.71928,43.67832 -1.47758,22.26221 4.00842,41.98609 17.47133,59.90169 12.99118,14.36393 29.77239,22.41821 48.98211,24.05677 18.04539,0.54286 33.25043,-3.9298 46.5249,-16.08111 l 1.83324,-1.7359 0.1847,2.36862 0.28328,3.09117 c 0.13853,1.62234 0.20467,2.38858 0.31199,3.14734 0.0961,0.67764 0.22463,1.35153 0.46798,2.62444 1.29662,1.29662 1.91935,1.91935 2.67062,2.26379 0.69386,0.31947 1.49879,0.39934 3.0475,0.55533 l 4.03088,0.009 4.37782,0.009 4.59246,-0.0287 4.59247,0.0287 4.37656,-0.009 c 2.23633,-0.005 3.2322,-0.007 4.22432,-0.0636 0.79869,-0.0449 1.59488,-0.12479 3.03003,-0.26831 1.27665,-1.27665 1.89938,-1.89938 2.24631,-2.65189 0.33196,-0.71758 0.41058,-1.55246 0.56408,-3.18478 l 0.002,-4.33289 c 0.0112,-2.55206 0.0212,-5.10287 0.0137,-7.65369 -0.005,-1.87442 -0.006,-3.74884 -0.003,-5.62327 0.0137,-5.09663 0.0187,-10.19452 0.0125,-15.29115 -0.009,-5.42235 -0.009,-10.84471 -0.005,-16.26706 0.007,-9.07011 0.005,-18.14023 -0.006,-27.21034 -0.0137,-10.57764 -0.0175,-21.15528 -0.004,-31.73417 0.0112,-9.13876 0.0175,-18.27875 0.0125,-27.419127 l -10e-4,-2.223226 v -0.01473 c -0.004,-4.695919 -0.007,-9.391712 -10e-4,-14.087506 0.007,-5.208328 0.0125,-10.416531 0,-15.624733 -0.005,-1.914359 -0.01,-3.828717 -0.0125,-5.743075 0.005,-1.825754 0.01,-3.651508 0.015,-5.477262 l -0.0212,-4.963354 c -10e-4,-2.441868 -0.002,-3.507869 -0.0587,-4.570874 -0.0437,-0.823399 -0.12105,-1.64505 -0.25833,-3.103282 -1.29662,-1.296248 -1.91935,-1.919226 -2.67061,-2.264035 -0.69387,-0.318976 -1.4988,-0.399594 -3.0475,-0.554839 l -4.03214,-0.0085 -4.37656,-0.0097 -4.59247,0.0292 z M 843.75359,151.54108 c -2.99383,-12.04273 -9.15123,-19.59284 -18.85031,-26.95326 -13.22455,-8.17035 -34.04663,-7.13205 -45.97455,2.75922 -9.14874,8.63208 -14.49372,18.23382 -15.31736,30.88182 -0.12979,14.36892 2.20637,24.91162 12.24116,35.54791 10.29934,9.21363 20.43521,11.14546 33.74337,10.56391 11.5498,-1.05826 19.43061,-7.06216 26.68496,-15.66803 8.1017,-11.22159 8.97152,-23.74978 7.47273,-37.13157 z"
     fill="#2d1a54"
     id="path4"
     style="fill:#f7f5fc;fill-opacity:1;stroke-width:1.24795" />
  <path
     d="m 355.84305,33.902145 c 1.50129,-0.0032 3.00258,-0.0065 4.54879,-0.0097 1.57491,0.0096 3.14983,0.01922 4.77217,0.0292 1.57491,-0.0096 3.14983,-0.01934 4.77217,-0.0292 1.50128,0.0031 3.00257,0.0064 4.54878,0.0097 1.38273,0.0027 2.76546,0.0056 4.18938,0.0085 3.33702,0.32297 3.33702,0.32297 5.83292,2.818874 0.34693,3.237562 0.34693,3.237562 0.3981,7.386004 0.025,1.548833 0.0499,3.097666 0.0749,4.693547 0.015,1.696466 0.03,3.393057 0.0437,5.089523 0.0237,1.731159 0.0474,3.462318 0.0736,5.193477 0.0636,4.558643 0.11357,9.117162 0.15974,13.676056 0.0499,4.650992 0.11357,9.301735 0.17596,13.952602 0.12105,9.126772 0.22588,18.254282 0.32197,27.381802 0.48546,-0.66141 0.97216,-1.32283 1.47259,-2.00421 2.24756,-3.05873 4.49762,-6.11621 6.74643,-9.17368 0.76374,-1.03955 1.52749,-2.08034 2.31495,-3.152331 6.29841,-8.557206 12.73036,-17.005467 19.20723,-25.428769 3.9897,-5.198219 7.91326,-10.444609 11.83058,-15.696865 14.28656,-19.122118 14.28656,-19.122118 19.57787,-24.41306 3.72015,-0.28341 3.72015,-0.28341 8.43366,-0.243725 1.24047,0.0052 1.24047,0.0052 2.50714,0.01073 2.64566,0.01398 5.29007,0.0453 7.93448,0.077 1.79206,0.01248 3.58411,0.02396 5.37742,0.03407 4.39529,0.02758 8.79057,0.07063 13.18586,0.121925 1.59863,5.497852 1.59863,5.497852 0.0624,8.748518 -0.62647,0.809671 -1.25419,1.619467 -1.90063,2.453848 -0.70135,0.927103 -1.40395,1.854331 -2.12651,2.809639 -1.16434,1.480695 -1.16434,1.480695 -2.35364,2.991341 -1.62982,2.137991 -3.25965,4.276357 -4.88948,6.415222 -0.83862,1.088338 -1.67724,2.176553 -2.54083,3.297837 -3.76382,4.920176 -7.40285,9.930079 -11.05435,14.933992 -7.18571,9.78307 -14.52617,19.443092 -21.90156,29.083518 -5.76304,7.54012 -11.43623,15.13017 -16.94095,22.86248 3.86491,7.14951 8.38499,13.55151 13.25949,20.0446 1.57741,2.12027 3.15357,4.24054 4.72849,6.36206 0.76749,1.0333 1.53498,2.06661 2.32618,3.12986 2.84284,3.84994 5.62452,7.7398 8.38874,11.64589 4.91069,6.92489 9.9287,13.76491 14.97542,20.59121 7.17448,9.70532 14.23164,19.48303 21.21518,29.32687 0.58529,0.72756 1.17058,1.45636 1.77334,2.20638 0.87607,1.11817 0.87607,1.11817 1.77085,2.25879 0.81491,1.00211 0.81491,1.00211 1.64729,2.02418 1.47009,3.14858 0.70759,5.21894 -0.19967,8.48607 -5.50347,0.31074 -11.00319,0.53538 -16.5129,0.68513 -1.87068,0.0624 -3.73886,0.14726 -5.60705,0.25583 -15.39848,0.87357 -15.39848,0.87357 -21.05544,-3.37446 -2.60822,-3.21473 -4.68481,-6.45691 -6.74269,-10.04601 -1.32033,-1.91062 -2.6519,-3.81125 -3.99719,-5.70315 -1.27166,-1.89189 -2.53833,-3.78753 -3.80251,-5.68442 -5.1191,-7.58879 -10.358,-15.03033 -15.91139,-22.30714 -6.31089,-8.27392 -12.23492,-16.77123 -18.04663,-25.40206 -6.60291,-10.2357 -6.60291,-10.2357 -14.40012,-19.52421 0.002,1.12316 0.005,2.24631 0.009,3.40316 0.025,10.55893 0.0437,21.1191 0.0562,31.67802 0.006,5.42984 0.015,10.85843 0.0287,16.28827 0.0137,5.23516 0.0212,10.47031 0.025,15.70547 0.002,2.00172 0.006,4.00343 0.0137,6.00515 0.009,2.79416 0.01,5.58833 0.009,8.38249 0.004,1.59364 0.006,3.18727 0.009,4.82833 -0.14976,3.56165 -0.14976,3.56165 -1.39771,4.8096 -2.66313,0.1248 -5.32875,0.16349 -7.99438,0.16598 -1.62359,0.001 -3.24717,0.002 -4.91943,0.005 -0.8486,-0.002 -1.69846,-0.005 -2.57452,-0.009 -2.59574,-0.006 -5.19273,0 -7.78847,0.009 -2.43475,-0.002 -2.43475,-0.002 -4.91943,-0.005 -1.50128,-0.001 -3.00257,-0.002 -4.55003,-0.005 -3.44435,-0.16099 -3.44435,-0.16099 -4.6923,-1.40894 -0.12604,-2.52086 -0.16348,-5.04671 -0.16722,-7.57132 -0.005,-1.6473 -0.01,-3.29335 -0.0162,-4.99056 10e-4,-1.84198 10e-4,-3.68396 0.002,-5.52593 -0.004,-1.92684 -0.009,-3.85243 -0.0125,-5.77927 -0.0112,-5.24639 -0.015,-10.49403 -0.015,-15.74042 -10e-4,-4.37407 -0.006,-8.74689 -0.01,-13.11972 -0.0112,-10.31307 -0.0137,-20.62615 -0.0125,-30.93922 0,-10.65502 -0.0125,-21.31128 -0.0324,-31.96629 -0.0162,-9.13376 -0.0237,-18.266268 -0.0225,-27.400403 0,-5.461537 -0.004,-10.922949 -0.0162,-16.384361 -0.0125,-5.134824 -0.0125,-10.269522 -0.004,-15.40447 0.001,-1.888526 -10e-4,-3.777176 -0.009,-5.665702 -0.01,-2.570407 -0.004,-5.140439 0.006,-7.710846 -10e-4,-1.440885 -10e-4,-2.881895 -0.002,-4.366459 0.62398,-6.755039 4.5413,-6.17911 10.33304,-6.19084 z"
     fill="#2d1955"
     id="path5"
     style="fill:#f7f5fc;fill-opacity:1;stroke-width:1.24795" />
  <path
     d="m 684.0694,95.002997 c 11.53108,7.687013 20.26799,19.857033 23.08212,33.624443 0.65143,4.75095 0.75002,9.40581 0.73629,14.18921 0.004,1.45886 0.004,1.45886 0.007,2.94766 0.005,3.19476 10e-4,6.38952 -0.002,9.58428 0,2.22385 10e-4,4.44894 0.004,6.67404 0.001,4.64987 -10e-4,9.29974 -0.007,13.94961 -0.006,5.97395 -0.002,11.94664 0.005,17.92059 0.005,4.58622 0.002,9.1737 0,13.76117 -10e-4,2.20388 0,4.40776 0.002,6.61165 0.004,3.06871 -10e-4,6.13618 -0.009,9.20489 0.003,0.91725 0.005,1.83449 0.007,2.77919 -0.0262,6.26597 -0.0262,6.26597 -1.41642,7.65618 -5.37493,0.31574 -10.76234,0.23088 -16.14601,0.23337 -2.28125,0.0237 -2.28125,0.0237 -4.60868,0.0474 -2.17518,0.004 -2.17518,0.004 -4.39404,0.006 -1.33906,0.006 -2.67686,0.0112 -4.05585,0.0162 -3.24218,-0.30326 -3.24218,-0.30326 -5.73808,-2.79916 -0.31448,-3.64402 -0.31448,-3.64402 -0.31823,-8.37251 -0.005,-0.86109 -0.01,-1.72217 -0.0137,-2.60822 -0.009,-1.87317 -0.0125,-3.74635 -0.01,-5.61828 10e-4,-2.97012 -0.015,-5.94025 -0.0362,-8.91038 -0.0586,-8.44613 -0.0886,-16.89227 -0.0973,-25.33841 -0.006,-5.16528 -0.0362,-10.33055 -0.0811,-15.49582 -0.0125,-1.96303 -0.015,-3.92606 -0.009,-5.88909 0.0874,-16.2995 0.0874,-16.2995 -7.89704,-30.12806 -0.70759,-0.55658 -1.41643,-1.11317 -2.14523,-1.68723 -0.70759,-0.5753 -1.41518,-1.15186 -2.14523,-1.74463 -5.63201,-3.87864 -10.16831,-4.44895 -16.96466,-4.41775 -0.8561,-0.02 -1.71219,-0.0399 -2.59574,-0.0599 -9.0826,-0.009 -16.35316,3.09616 -22.98228,9.39208 -8.69324,9.43452 -7.81718,21.60455 -7.77475,33.6398 -0.0125,1.93682 -0.0275,3.87364 -0.0449,5.80921 -0.0399,5.06544 -0.0537,10.12838 -0.0587,15.19382 -0.01,8.1354 -0.0549,16.2708 -0.11481,24.40619 -0.015,2.8391 -0.015,5.67694 -0.0125,8.51603 -0.007,1.72966 -0.0162,3.45932 -0.0262,5.18898 -10e-4,1.51252 -0.003,3.02504 -0.004,4.58373 -0.31448,3.54044 -0.31448,3.54044 -2.81039,6.03634 -3.1074,0.32322 -3.1074,0.32322 -6.98104,0.33196 -1.38772,0.002 -2.77669,0.006 -4.20684,0.009 -1.45512,-0.009 -2.91148,-0.0187 -4.41152,-0.0287 -1.45636,0.01 -2.91147,0.0187 -4.41151,0.0287 -1.38897,-0.002 -2.77669,-0.006 -4.20684,-0.009 -1.2779,-0.004 -2.55706,-0.006 -3.87364,-0.009 -3.10741,-0.32322 -3.10741,-0.32322 -5.60331,-2.81912 -0.31823,-2.44099 -0.31823,-2.44099 -0.32571,-5.486 -0.009,-1.1531 -0.0175,-2.30621 -0.0262,-3.49426 0.002,-1.26917 0.006,-2.53834 0.009,-3.84494 -0.006,-1.33281 -0.0125,-2.66688 -0.0187,-4.04087 -0.0175,-4.42524 -0.0162,-8.84923 -0.0137,-13.27447 -0.005,-3.06621 -0.01,-6.13118 -0.0162,-9.19615 -0.009,-6.43195 -0.009,-12.86389 -0.002,-19.29584 0.007,-8.25645 -0.0137,-16.5129 -0.0424,-24.76935 -0.0187,-6.33211 -0.02,-12.66422 -0.0162,-18.99632 0,-3.04501 -0.006,-6.09001 -0.0187,-9.13376 -0.0162,-4.25302 -0.007,-8.50355 0.007,-12.75657 -0.01,-1.26542 -0.02,-2.53209 -0.0299,-3.8362 0.0137,-1.73465 0.0137,-1.73465 0.0275,-3.505497 0,-1.004601 -10e-4,-2.010451 -10e-4,-3.047499 0.58654,-3.254409 1.60362,-4.361592 4.21184,-6.340844 3.13485,-0.44477 3.13485,-0.44477 6.83004,-0.409453 1.32782,0.0064 2.65564,0.01285 4.0234,0.01947 1.38647,0.02571 2.7717,0.05142 4.19935,0.078 1.39147,0.0065 2.78169,0.01285 4.21434,0.01947 10.2981,0.09996 10.2981,0.09996 13.17962,1.540472 0.51665,3.943528 0.51665,3.943528 0.77997,8.813041 0.0936,1.6111 0.18719,3.22096 0.28328,4.88074 0.0611,1.2467 0.1223,2.4934 0.1847,3.77755 0.4243,-0.63396 0.84986,-1.26792 1.28664,-1.9206 16.93845,-24.056647 49.0832,-27.145203 73.64414,-12.187126 z"
     fill="#2d1954"
     id="path6"
     style="fill:#f7f5fc;fill-opacity:1;stroke-width:1.24795" />
  <path
     d="M 33.4766,47.9531 C 39.2335,51.3598 42.784,55.6871 45,62 c 0.4107,2.5452 0.4107,2.5452 0.6328,5.2539 0.084,1.0107 0.1679,2.0214 0.2544,3.0627 0.0785,1.0712 0.157,2.1423 0.2378,3.2459 0.0849,1.1001 0.1698,2.2003 0.2573,3.3337 C 47.1025,86.9414 47.2024,96.9355 47,107 c 0.5517,-0.322 1.1034,-0.645 1.6719,-0.977 4.7761,-2.099 10.4888,-1.794 15.4726,-0.441 9.3396,4.166 16.4526,12.949 23.532,20.113 3.2977,3.325 6.7,6.434 10.2649,9.465 3.1296,2.797 6.0466,5.802 8.9876,8.793 2.632,2.66 5.316,5.161 8.196,7.547 12.603,10.872 20.879,25.504 22.159,42.203 0.11,4.132 0.134,8.254 0.114,12.387 0.002,1.518 0.005,3.036 0.009,4.553 0.005,3.156 -0.002,6.312 -0.016,9.468 -0.017,4.037 -0.007,8.073 0.011,12.111 0.011,3.123 0.007,6.247 -10e-4,9.37 -0.002,1.489 10e-4,2.979 0.008,4.468 0.008,2.076 -0.004,4.152 -0.021,6.229 -0.002,1.178 -0.005,2.357 -0.007,3.571 -0.427,3.518 -1.205,5.359 -3.381,8.14 -3.318,2.415 -6.509,2.259 -10.525,2.275 -0.646,0.005 -1.292,0.01 -1.958,0.015 -2.129,0.014 -4.259,0.013 -6.388,0.011 -1.485,0.004 -2.969,0.008 -4.453,0.013 -3.11,0.007 -6.219,0.007 -9.329,0.002 -3.9787,-0.006 -7.9574,0.011 -11.9364,0.034 -3.0653,0.015 -6.1305,0.016 -9.1958,0.013 -1.4667,0 -2.9335,0.005 -4.4003,0.015 -2.0536,0.013 -4.1063,0.006 -6.16,-0.006 -1.7506,10e-4 -1.7506,10e-4 -3.5366,0.002 C 62.6322,265.956 60.7887,265.101 58,263 55.3516,259.027 56.1555,256.067 56.6055,251.539 58.4524,228.731 59,215 48.6602,208.941 42.7434,202.557 36.0922,196.883 29.2139,191.563 26.2414,189.254 23.6126,186.714 21,184 20.282,183.303 19.564,182.605 18.8242,181.887 14.106,177.03 10.6542,172.072 7.62501,166.062 7.30363,165.431 6.98225,164.8 6.65113,164.149 2.17457,154.821 0.514426,145.793 0.687509,135.5 0.697338,134.36 0.707167,133.22 0.717294,132.046 0.897703,118.777 1.39641,105.511 1.87501,92.25 1.93355,90.5444 1.93355,90.5444 1.99326,88.8044 2.10855,85.5202 2.236,82.2367 2.3672,78.9531 2.40065,77.9676 2.4341,76.9821 2.46856,75.9667 2.8837,66.2717 4.60383,58.5713 11,51 17.2298,45.7873 25.8657,45.024 33.4766,47.9531 Z M 18.125,60.375 c -5.4531,6.7362 -4.3492,16.9095 -4.6601,25.2461 -0.043,1.0988 -0.086,2.1975 -0.1303,3.3296 -0.0898,2.3187 -0.1779,4.6375 -0.2645,6.9563 -0.131,3.4889 -0.2691,6.977 -0.408,10.466 -0.3866,9.959 -0.7464,19.917 -0.791,29.885 -0.0059,0.702 -0.0118,1.405 -0.0178,2.128 0.0317,16.026 7.4862,27.742 18.3607,38.888 2.566,2.48 5.2859,4.751 8.0277,7.033 28.4406,23.688 28.4406,23.688 30.1958,40.033 0.896,9.95 -0.5567,19.7 -1.4375,29.66 19.14,0 38.28,0 58,0 0.146,-11.591 0.146,-11.591 0.244,-23.182 0.03,-4.737 0.065,-9.475 0.133,-14.212 0.055,-3.825 0.085,-7.65 0.097,-11.476 0.01,-1.449 0.027,-2.899 0.055,-4.347 0.289,-15.993 -4.357,-27.239 -15.302,-38.706 -2.632,-2.718 -5.306,-5.392 -7.997,-8.053 -1.666,-1.648 -3.3247,-3.304 -4.9819,-4.962 -5.0499,-5.032 -10.1458,-9.957 -15.5691,-14.59 -2.5226,-2.212 -4.798,-4.61 -7.1165,-7.035 -8.0773,-8.466 -8.0773,-8.466 -18.8125,-12.062 -4.1846,0.697 -5.8603,1.565 -8.75,4.625 -2.2885,3.269 -2.4716,6.07 -2,10 3.2046,5.718 7.7583,9.917 12.4492,14.434 1.6692,1.634 3.3378,3.269 5.0059,4.904 2.6206,2.558 5.2455,5.112 7.8811,7.655 2.5512,2.467 5.0832,4.952 7.613,7.441 1.1875,1.131 1.1875,1.131 2.3989,2.286 6.0168,5.959 6.0168,5.959 6.7176,10.253 C 87,180 87,180 86,181 c -3.3474,0.331 -5.3113,0.451 -8.1685,-1.42 -0.6644,-0.666 -1.3288,-1.331 -2.0134,-2.017 -0.7642,-0.752 -1.5284,-1.504 -2.3158,-2.278 -0.8064,-0.825 -1.6128,-1.65 -2.4437,-2.5 -0.8453,-0.844 -1.6906,-1.688 -2.5615,-2.558 -1.7864,-1.791 -3.5655,-3.59 -5.3377,-5.395 -2.698,-2.745 -5.4214,-5.463 -8.1496,-8.178 -1.7353,-1.746 -3.4691,-3.494 -5.2012,-5.244 -0.8084,-0.806 -1.6169,-1.613 -2.4498,-2.444 -5.3976,-5.533 -10.6077,-11.342 -11.8822,-19.189 0.049,-0.937 0.0979,-1.874 0.1484,-2.84 0.0335,-0.939 0.067,-1.879 0.1016,-2.847 0.1989,-2.249 0.48,-4.49 0.8095,-6.723 0.5643,-4.491 0.4237,-8.819 0.1592,-13.328 -0.0434,-0.831 -0.0869,-1.661 -0.1316,-2.517 C 36.4711,99.7756 36.3751,98.0293 36.2759,96.2832 36.1258,93.6397 35.9858,90.9957 35.8477,88.3516 36.2798,72.4145 36.2798,72.4145 30,59 25.5136,56.7568 21.9096,57.2486 18.125,60.375 Z"
     fill="#2e1d54"
     id="path7"
     style="fill:#20123c;fill-opacity:1" />
  <path
     d="m 275.656,48.0078 c 6.035,3.5203 9.115,8.4636 11.344,14.9922 1.119,5.4022 1.312,10.7899 1.535,16.2851 0.043,1.0014 0.087,2.0027 0.131,3.0345 0.138,3.2474 0.269,6.495 0.396,9.7429 0.066,1.6551 0.066,1.6551 0.132,3.3437 2.55,65.6488 2.55,65.6488 -20.359,90.6388 -7.89,8.406 -15.99,16.662 -24.789,24.121 -0.675,0.605 -1.35,1.21 -2.046,1.834 -0.512,0.399 -1.025,0.797 -1.553,1.208 -2.459,2.095 -4.177,3.718 -4.98,6.911 -0.19,2.512 -0.194,4.961 -0.131,7.479 -0.006,1.367 -0.006,1.367 -0.013,2.763 -0.011,2.901 0.017,5.8 0.052,8.701 0.024,2.905 0.039,5.808 0.03,8.713 -0.004,1.803 0.01,3.606 0.047,5.409 -0.002,4.142 -0.102,6.257 -2.352,9.845 -3.51,3.294 -5.752,3.109 -10.49,3.148 -0.655,0.007 -1.311,0.013 -1.986,0.02 -2.173,0.02 -4.346,0.031 -6.519,0.041 -1.113,0.006 -1.113,0.006 -2.248,0.013 -3.929,0.02 -7.857,0.035 -11.786,0.044 -4.055,0.011 -8.11,0.046 -12.166,0.085 -3.12,0.026 -6.24,0.035 -9.36,0.038 -1.495,0.005 -2.99,0.017 -4.484,0.035 -2.095,0.025 -4.188,0.024 -6.283,0.017 -1.786,0.009 -1.786,0.009 -3.609,0.018 -3.804,-0.586 -5.447,-1.821 -8.169,-4.488 -1.45,-2.9 -1.159,-5.45 -1.193,-8.69 -0.008,-0.688 -0.016,-1.377 -0.025,-2.086 -0.025,-2.287 -0.041,-4.574 -0.055,-6.861 -0.006,-0.785 -0.011,-1.569 -0.017,-2.378 -0.026,-4.167 -0.046,-8.334 -0.06,-12.501 -0.013,-3.425 -0.041,-6.849 -0.082,-10.273 -0.05,-4.152 -0.074,-8.304 -0.081,-12.456 -0.007,-1.571 -0.022,-3.141 -0.046,-4.711 -0.269,-18.483 4.923,-33.258 17.927,-46.799 3.478,-3.544 7.022,-7.02 10.569,-10.495 1.443,-1.431 2.885,-2.864 4.327,-4.297 1.399,-1.386 2.8,-2.772 4.201,-4.156 0.637,-0.629 1.273,-1.259 1.929,-1.907 3.825,-3.746 7.755,-7.325 11.819,-10.809 2.22,-1.964 4.259,-4.063 6.299,-6.211 11.286,-11.836 11.286,-11.836 19.605,-12.69 4.229,-0.071 7.855,-0.023 11.883,1.32 0.065,-1.25 0.129,-2.5 0.196,-3.789 0.248,-4.6789 0.525,-9.3561 0.811,-14.0333 0.119,-2.0168 0.231,-4.0341 0.334,-6.0518 1.232,-23.8361 1.232,-23.8361 8.677,-31.0932 6.466,-5.4086 14.876,-5.9699 22.638,-3.0249 z M 260.125,60.375 c -2.627,3.2455 -3.251,4.8828 -3.514,8.9477 -0.09,1.3425 -0.09,1.3425 -0.182,2.7121 -0.06,0.9708 -0.121,1.9415 -0.183,2.9417 -0.065,0.9992 -0.13,1.9985 -0.197,3.0279 -0.138,2.12 -0.273,4.2401 -0.406,6.3603 -0.203,3.2264 -0.414,6.4523 -0.625,9.6782 -0.133,2.0612 -0.265,4.1224 -0.397,6.1841 -0.062,0.958 -0.125,1.917 -0.189,2.904 -1.114,9.175 -1.114,9.175 0.568,17.869 0.175,1.891 0.267,3.789 0.312,5.687 0.057,1.522 0.057,1.522 0.114,3.075 -1.103,8.384 -7.629,13.922 -13.321,19.636 -0.865,0.876 -1.731,1.752 -2.623,2.654 -1.825,1.841 -3.655,3.678 -5.489,5.511 -2.802,2.808 -5.578,5.639 -8.354,8.472 -1.781,1.789 -3.563,3.577 -5.346,5.363 -0.826,0.848 -1.653,1.696 -2.504,2.57 -6.503,6.427 -6.503,6.427 -10.87,7.07 -1.445,-0.019 -1.445,-0.019 -2.919,-0.038 -0.521,-2.803 -0.68,-4.278 0,-7 2.498,-3.491 5.577,-6.341 8.68,-9.293 0.883,-0.868 1.766,-1.737 2.676,-2.632 2.344,-2.301 4.703,-4.587 7.07,-6.865 3.332,-3.214 6.64,-6.453 9.947,-9.693 1.76,-1.721 3.528,-3.437 5.302,-5.145 0.8,-0.778 1.601,-1.556 2.426,-2.357 0.706,-0.681 1.412,-1.361 2.14,-2.063 2.562,-2.843 3.64,-5.037 4.134,-8.827 -0.476,-3.97 -1.905,-6.02 -4.375,-9.125 -4.135,-2.757 -7.16,-2.898 -12,-2 -6.685,4.014 -12.169,9.942 -17.563,15.5 -4.672,4.788 -9.386,9.398 -14.457,13.762 -13.97,12.26 -30.144,27.005 -32.412,46.439 -0.142,4.013 -0.133,7.993 -0.056,12.006 0.009,1.461 0.016,2.922 0.021,4.383 0.019,3.8 0.068,7.599 0.124,11.398 0.06,4.583 0.083,9.166 0.112,13.75 0.048,6.921 0.144,13.84 0.231,20.762 19.14,0 38.28,0 58,0 0.052,-12.804 0.052,-12.804 0.028,-25.607 0.095,-14.605 0.095,-14.605 3.972,-19.108 1.305,-1.129 2.64,-2.223 4,-3.285 1.461,-1.477 2.907,-2.968 4.34,-4.473 1.53,-1.532 3.062,-3.062 4.597,-4.59 0.76,-0.763 1.52,-1.527 2.303,-2.314 4.187,-4.179 8.471,-8.163 12.949,-12.026 11.729,-10.347 21.316,-23.067 23.079,-39.023 0.102,-2.511 0.094,-4.998 0.044,-7.512 -0.009,-0.974 -0.018,-1.948 -0.027,-2.952 -0.271,-17.585 -1.215,-35.177 -2.166,-52.7356 -0.111,-2.2155 -0.194,-4.43 -0.268,-6.6469 -0.055,-1.2378 -0.11,-2.4756 -0.167,-3.751 -0.037,-1.0485 -0.074,-2.097 -0.112,-3.1772 C 275.857,63.3006 274.439,61.5643 272,59 c -4.486,-2.2433 -8.09,-1.7514 -11.875,1.375 z"
     fill="#2e1b4d"
     id="path8"
     style="fill:#20123c;fill-opacity:1" />
  <path
     d="M 129.324,8.18753 C 135.525,12.3875 140.741,17.7052 146,23 c 0.766,-0.9436 0.766,-0.9436 1.547,-1.9062 9.564,-11.26013 20.64,-18.64916 35.519,-20.468769 12.163,-0.507422 24.095,4.232169 33.122,12.339869 10.668,11.1739 13.228,22.5402 13.023,37.3281 -0.17,5.3368 -1.031,9.8193 -3.211,14.707 -0.402,0.9488 -0.804,1.8975 -1.219,2.875 -5.513,12.0065 -14.502,21.1535 -23.785,30.3594 -0.923,0.9223 -1.845,1.8446 -2.796,2.7946 -1.934,1.933 -3.871,3.862 -5.811,5.788 -2.465,2.448 -4.923,4.902 -7.379,7.359 -2.377,2.376 -4.758,4.748 -7.139,7.121 -0.871,0.87 -1.742,1.74 -2.639,2.636 -4.924,4.886 -9.957,9.564 -15.232,14.067 -0.812,0.719 -1.624,1.439 -2.461,2.18 -0.632,0.559 -1.263,1.119 -1.914,1.695 -0.647,0.575 -1.294,1.15 -1.961,1.742 -3.273,2.72 -6.094,2.85 -10.238,2.778 -7.442,-1.211 -13.014,-8.865 -18.008,-13.973 -1.977,-1.98 -3.968,-3.811 -6.105,-5.609 -4.161,-3.551 -7.967,-7.43 -11.813,-11.313 -5.585,-5.675 -5.585,-5.675 -11.5,-11 C 79.0232,90.0605 62.7984,72.3833 60.6484,49.211 60.0324,36.9746 63.0641,26.4777 71.125,16.9922 87.3298,-0.225336 108.62,-3.7978 129.324,8.18753 Z M 79.4648,24.0039 C 73.2832,32.4275 71.0987,40.6861 72,51 c 3.0142,14.9802 11.5875,25.3388 22,36 0.5727,0.5878 1.1453,1.1757 1.7354,1.7813 5.8836,6.0143 11.7816,11.9477 18.2096,17.3827 3.353,2.995 6.467,6.228 9.625,9.425 3.389,3.415 6.872,6.64 10.555,9.739 2.872,2.561 5.438,5.411 8.016,8.266 1.728,1.643 1.728,1.643 3.764,1.189 2.464,-0.921 3.659,-2.017 5.478,-3.908 0.61,-0.624 1.219,-1.248 1.847,-1.891 5.888,-6.167 12.513,-11.521 18.585,-17.493 0.735,-0.719 1.47,-1.437 2.227,-2.178 1.178,-1.17 1.178,-1.17 2.38,-2.364 0.819,-0.81 1.638,-1.619 2.481,-2.454 1.734,-1.719 3.466,-3.442 5.195,-5.1671 2.616,-2.6046 5.251,-5.19 7.886,-7.7751 13.274,-13.145 26.123,-26.7285 26.641,-46.4903 C 218.548,36.152 215.782,29.3056 209.914,22.625 202.153,15.2179 194.801,12.284 184.085,12.3972 170.208,13.1061 160.646,22.8365 151.691,32.4883 150.092,34.3 148.525,36.1258 147,38 143.627,37.718 142.294,37.3105 139.93,34.8125 139.252,33.8844 138.574,32.9563 137.875,32 130.152,22.1511 121.196,14.147 108.461,12.5586 96.9654,12.0084 87.3182,15.3825 79.4648,24.0039 Z"
     fill="#2d1c51"
     id="path9"
     style="fill:#20123c;fill-opacity:1" />
  <path
     d="m 992.25988,90.39144 c 0.44427,3.127493 0.44427,3.127493 0.40933,7.024722 -0.006,1.393962 -0.0125,2.787928 -0.0187,4.224318 -0.0262,1.46135 -0.0524,2.9227 -0.0786,4.42898 -0.006,1.46509 -0.0125,2.93144 -0.02,4.44271 -0.0998,10.88588 -0.0998,10.88588 -1.53997,12.32602 -1.70845,0.20716 -3.42563,0.34443 -5.14281,0.44801 -19.14608,0.82116 -19.14608,0.82116 -34.60696,10.92957 -5.48475,7.72108 -7.96568,14.9567 -8.05054,24.46859 -0.0212,1.6448 -0.0412,3.28835 -0.0624,4.98307 -0.0112,1.77709 -0.0212,3.55292 -0.0325,5.33001 -0.02,1.83324 -0.0412,3.66648 -0.0637,5.49972 -0.0574,4.80586 -0.10108,9.61173 -0.14101,14.41884 -0.0649,7.71484 -0.14477,15.42968 -0.23462,23.14452 -0.0287,2.69682 -0.0487,5.39364 -0.0686,8.09047 -0.0162,1.62483 -0.0337,3.24967 -0.0499,4.92317 -0.0125,1.43764 -0.0237,2.87528 -0.0362,4.35785 -0.18095,3.22595 -0.18095,3.22595 -1.4289,4.4739 -5.37368,0.31574 -10.76234,0.23088 -16.14476,0.23462 -2.2825,0.0225 -2.2825,0.0225 -4.60993,0.0462 -2.17518,0.004 -2.17518,0.004 -4.39404,0.006 -2.00795,0.009 -2.00795,0.009 -4.05584,0.0162 -3.24218,-0.30326 -3.24218,-0.30326 -5.73809,-2.79916 -0.31448,-2.46346 -0.31448,-2.46346 -0.31698,-5.54215 -0.007,-1.16559 -0.0137,-2.33118 -0.0212,-3.53171 0.007,-1.92309 0.007,-1.92309 0.015,-3.88612 -0.004,-1.34654 -0.009,-2.69433 -0.0125,-4.0833 -0.0112,-4.47141 -0.004,-8.94282 0.004,-13.41424 -0.001,-3.09616 -0.004,-6.19233 -0.006,-9.2885 -0.005,-7.32922 0.004,-14.65845 0.0175,-21.98767 0.009,-5.85164 0.006,-11.70329 -0.005,-17.55494 -0.0137,-8.05303 -0.0162,-16.10731 -0.009,-24.1616 0.002,-3.07745 0,-6.15365 -0.006,-9.2311 -0.006,-4.2942 0.004,-8.58716 0.0175,-12.88136 -0.005,-1.28289 -0.01,-2.56454 -0.015,-3.88612 0.007,-1.16558 0.0137,-2.331171 0.0212,-3.531701 10e-4,-1.015833 0.002,-2.031666 0.002,-3.078698 0.31448,-2.463457 0.31448,-2.463457 2.81039,-4.959361 2.97387,-0.32297 2.97387,-0.32297 6.66406,-0.331456 1.98924,-0.0049 1.98924,-0.0049 4.01965,-0.0097 1.39022,0.0096 2.78044,0.01922 4.21434,0.0292 1.38523,-0.0096 2.7717,-0.01934 4.19936,-0.0292 1.32782,0.0031 2.65564,0.0064 4.02339,0.0097 1.8295,0.0042 1.8295,0.0042 3.69519,0.0085 3.13486,0.32297 3.13486,0.32297 6.87871,2.818874 0.63895,4.065828 0.63895,4.065828 0.85859,8.891662 0.0811,1.59861 0.16348,3.19849 0.24835,4.84579 0.0462,1.23172 0.0923,2.4647 0.14101,3.73387 0.42431,-0.72381 0.84986,-1.44763 1.28664,-2.1939 6.37329,-10.270638 13.41299,-16.585899 25.2573,-19.689057 7.53763,-1.283269 15.6019,-2.433881 22.12619,1.915731 z"
     fill="#2c1953"
     id="path10"
     style="fill:#f7f5fc;fill-opacity:1;stroke-width:1.24795" />
  <path
     d="m 518.77941,90.059984 c 1.38772,-0.0032 2.77669,-0.0065 4.20685,-0.0097 1.45511,0.0096 2.91147,0.01922 4.41151,0.0292 1.45636,-0.0096 2.91147,-0.01934 4.41151,-0.0292 1.38897,0.0031 2.77669,0.0064 4.20684,0.0097 1.2779,0.0027 2.55706,0.0056 3.87364,0.0085 3.10741,0.32297 3.10741,0.32297 5.60331,2.818874 0.31448,2.463457 0.31448,2.463457 0.31698,5.542155 0.007,1.165587 0.0137,2.331177 0.0212,3.531707 -0.005,1.28164 -0.01,2.56453 -0.015,3.88611 0.004,1.34654 0.009,2.69433 0.0125,4.0833 0.0112,4.47141 0.004,8.94282 -0.004,13.41424 10e-4,3.09617 0.004,6.19233 0.006,9.2885 0.005,7.32923 -0.004,14.65845 -0.0175,21.98767 -0.009,5.85165 -0.006,11.70329 0.005,17.55494 0.0137,8.05303 0.0162,16.10732 0.009,24.1616 -0.002,3.07745 0,6.15365 0.006,9.2311 0.006,4.2942 -0.004,8.58716 -0.0175,12.88136 0.005,1.28289 0.01,2.56454 0.015,3.88612 -0.007,1.16559 -0.0137,2.33118 -0.0212,3.53171 -10e-4,1.01583 -0.002,2.03166 -0.002,3.07869 -0.31448,2.46346 -0.31448,2.46346 -2.81038,4.95936 -3.10741,0.32322 -3.10741,0.32322 -6.98105,0.33196 -1.38772,0.002 -2.77669,0.006 -4.20684,0.009 -1.45512,-0.009 -2.91148,-0.0187 -4.41151,-0.0287 -1.45636,0.01 -2.91148,0.0187 -4.41151,0.0287 -1.38898,-0.002 -2.7767,-0.006 -4.20685,-0.009 -1.2779,-0.004 -2.55705,-0.006 -3.87364,-0.009 -3.1074,-0.32322 -3.1074,-0.32322 -5.60331,-2.81912 -0.31448,-2.46346 -0.31448,-2.46346 -0.31698,-5.54215 -0.007,-1.16559 -0.0137,-2.33118 -0.0212,-3.53171 0.007,-1.92309 0.007,-1.92309 0.015,-3.88612 -0.004,-1.34654 -0.009,-2.69433 -0.0125,-4.0833 -0.0112,-4.47141 -0.004,-8.94282 0.004,-13.41424 -10e-4,-3.09616 -0.004,-6.19233 -0.006,-9.2885 -0.005,-7.32922 0.004,-14.65845 0.0175,-21.98767 0.009,-5.85164 0.006,-11.70329 -0.005,-17.55494 -0.0137,-8.05303 -0.0162,-16.10731 -0.009,-24.1616 0.002,-3.07745 0,-6.15365 -0.006,-9.2311 -0.006,-4.2942 0.004,-8.58716 0.0175,-12.88136 -0.005,-1.28289 -0.01,-2.56453 -0.015,-3.88611 0.007,-1.16559 0.0137,-2.331177 0.0212,-3.531707 0.001,-1.015833 0.002,-2.031666 0.002,-3.078698 0.74752,-5.85539 4.92941,-5.280084 9.79143,-5.290817 z"
     fill="#2c1852"
     id="path11"
     style="fill:#f7f5fc;fill-opacity:1;stroke-width:1.24795" />
  <path
     d="m 535.8751,34.07274 c 5.8841,3.367224 10.06723,7.327849 12.11387,13.888333 1.12566,6.564227 0.73879,12.051597 -2.4959,17.939309 -4.15942,5.787378 -9.27104,8.684873 -16.23835,9.983616 -6.62039,0.416192 -12.17877,-1.476327 -17.45635,-5.45979 -4.61743,-4.852162 -6.62663,-9.61834 -6.94111,-16.301372 0.42929,-7.76925 3.13984,-12.531435 8.89041,-17.861313 6.52055,-4.346368 14.79946,-4.972715 22.12743,-2.188783 z"
     fill="#2c1a52"
     id="path12"
     style="fill:#f7f5fc;fill-opacity:1;stroke-width:1.24795" />
</svg>
