<svg width="853" height="267" viewBox="0 0 853 267" fill="none" xmlns="http://www.w3.org/2000/svg">
<path d="M33.4766 47.9531C39.2335 51.3598 42.784 55.6871 45 62C45.4107 64.5452 45.4107 64.5452 45.6328 67.2539C45.7168 68.2646 45.8007 69.2753 45.8872 70.3166C45.9657 71.3878 46.0442 72.4589 46.125 73.5625C46.2099 74.6626 46.2948 75.7628 46.3823 76.8962C47.1025 86.9414 47.2024 96.9355 47 107C47.5517 106.678 48.1034 106.355 48.6719 106.023C53.448 103.924 59.1607 104.229 64.1445 105.582C73.4841 109.748 80.5971 118.531 87.6765 125.695C90.9742 129.02 94.3765 132.129 97.9414 135.16C101.071 137.957 103.988 140.962 106.929 143.953C109.561 146.613 112.245 149.114 115.125 151.5C127.728 162.372 136.004 177.004 137.284 193.703C137.394 197.835 137.418 201.957 137.398 206.09C137.4 207.608 137.403 209.126 137.407 210.643C137.412 213.799 137.405 216.955 137.391 220.111C137.374 224.148 137.384 228.184 137.402 232.222C137.413 235.345 137.409 238.469 137.401 241.592C137.399 243.081 137.402 244.571 137.409 246.06C137.417 248.136 137.405 250.212 137.388 252.289C137.386 253.467 137.383 254.646 137.381 255.86C136.954 259.378 136.176 261.219 134 264C130.682 266.415 127.491 266.259 123.475 266.275C122.829 266.28 122.183 266.285 121.517 266.29C119.388 266.304 117.258 266.303 115.129 266.301C113.644 266.305 112.16 266.309 110.676 266.314C107.566 266.321 104.457 266.321 101.347 266.316C97.3683 266.31 93.3896 266.327 89.4106 266.35C86.3453 266.365 83.2801 266.366 80.2148 266.363C78.7481 266.363 77.2813 266.368 75.8145 266.378C73.7609 266.391 71.7082 266.384 69.6545 266.372C67.9039 266.373 67.9039 266.373 66.1179 266.374C62.6322 265.956 60.7887 265.101 58 263C55.3516 259.027 56.1555 256.067 56.6055 251.539C61.5 214 58.8398 215.059 49.5 207.5C43.5832 201.116 36.0922 196.883 29.2139 191.563C26.2414 189.254 23.6126 186.714 21 184C20.282 183.303 19.564 182.605 18.8242 181.887C14.106 177.03 10.6542 172.072 7.62501 166.062C7.30363 165.431 6.98225 164.8 6.65113 164.149C2.17457 154.821 0.514426 145.793 0.687509 135.5C0.697338 134.36 0.707167 133.22 0.717294 132.046C0.897703 118.777 1.39641 105.511 1.87501 92.25C1.93355 90.5444 1.93355 90.5444 1.99326 88.8044C2.10855 85.5202 2.236 82.2367 2.3672 78.9531C2.40065 77.9676 2.4341 76.9821 2.46856 75.9667C2.8837 66.2717 4.60383 58.5713 11 51C17.2298 45.7873 25.8657 45.024 33.4766 47.9531Z" fill="#FD7A12"/>
<path d="M275.656 48.0078C281.691 51.5281 284.771 56.4714 287 63C288.119 68.4022 288.312 73.7899 288.535 79.2851C288.578 80.2865 288.622 81.2878 288.666 82.3196C288.804 85.567 288.935 88.8146 289.062 92.0625C289.128 93.7176 289.128 93.7176 289.194 95.4062C291.744 161.055 291.744 161.055 268.835 186.045C260.945 194.451 252.845 202.707 244.046 210.166C243.371 210.771 242.696 211.376 242 212C241.488 212.399 240.975 212.797 240.447 213.208C237.988 215.303 236.27 216.926 235.467 220.119C235.277 222.631 235.273 225.08 235.336 227.598C235.33 228.965 235.33 228.965 235.323 230.361C235.312 233.262 235.34 236.161 235.375 239.062C235.399 241.967 235.414 244.87 235.405 247.775C235.401 249.578 235.415 251.381 235.452 253.184C235.45 257.326 235.35 259.441 233.1 263.029C229.59 266.323 227.348 266.138 222.61 266.177C221.955 266.184 221.299 266.19 220.624 266.197C218.451 266.217 216.278 266.228 214.105 266.238C212.992 266.244 212.992 266.244 211.857 266.251C207.928 266.271 204 266.286 200.071 266.295C196.016 266.306 191.961 266.341 187.905 266.38C184.785 266.406 181.665 266.415 178.545 266.418C177.05 266.423 175.555 266.435 174.061 266.453C171.966 266.478 169.873 266.477 167.778 266.47C165.992 266.479 165.992 266.479 164.169 266.488C160.365 265.902 158.722 264.667 156 262C154.55 259.1 154.841 256.55 154.807 253.31C154.799 252.622 154.791 251.933 154.782 251.224C154.757 248.937 154.741 246.65 154.727 244.363C154.721 243.578 154.716 242.794 154.71 241.985C154.684 237.818 154.664 233.651 154.65 229.484C154.637 226.059 154.609 222.635 154.568 219.211C154.518 215.059 154.494 210.907 154.487 206.755C154.48 205.184 154.465 203.614 154.441 202.044C154.172 183.561 159.364 168.786 172.368 155.245C175.846 151.701 179.39 148.225 182.937 144.75C184.38 143.319 185.822 141.886 187.264 140.453C188.663 139.067 190.064 137.681 191.465 136.297C192.102 135.668 192.738 135.038 193.394 134.39C197.219 130.644 201.149 127.065 205.213 123.581C207.433 121.617 209.472 119.518 211.512 117.37C222.798 105.534 222.798 105.534 231.117 104.68C235.346 104.609 238.972 104.657 243 106C243.065 104.75 243.129 103.5 243.196 102.211C243.444 97.5321 243.721 92.8549 244.007 88.1777C244.126 86.1609 244.238 84.1436 244.341 82.1259C245.573 58.2898 245.573 58.2898 253.018 51.0327C259.484 45.6241 267.894 45.0628 275.656 48.0078Z" fill="#2393ED"/>
<path d="M129.324 8.18753C135.525 12.3875 140.741 17.7052 146 23C146.766 22.0564 146.766 22.0564 147.547 21.0938C157.111 9.83367 168.187 2.44464 183.066 0.625031C195.229 0.117609 207.161 4.8572 216.188 12.9649C226.856 24.1388 229.416 35.5051 229.211 50.293C229.041 55.6298 228.18 60.1123 226 65C225.598 65.9488 225.196 66.8975 224.781 67.875C219.268 79.8815 210.279 89.0285 200.996 98.2344C200.073 99.1567 199.151 100.079 198.2 101.029C196.266 102.962 194.329 104.891 192.389 106.817C189.924 109.265 187.466 111.719 185.01 114.176C182.633 116.552 180.252 118.924 177.871 121.297C177 122.167 176.129 123.037 175.232 123.933C170.308 128.819 165.275 133.497 160 138C159.188 138.719 158.376 139.439 157.539 140.18C156.907 140.739 156.276 141.299 155.625 141.875C154.978 142.45 154.331 143.025 153.664 143.617C150.391 146.337 147.57 146.467 143.426 146.395C135.984 145.184 130.412 137.53 125.418 132.422C123.441 130.442 121.45 128.611 119.313 126.813C115.152 123.262 111.346 119.383 107.5 115.5C101.915 109.825 101.915 109.825 96 104.5C79.0232 90.0605 62.7984 72.3833 60.6484 49.211C60.0324 36.9746 63.0641 26.4777 71.125 16.9922C87.3298 -0.225336 108.62 -3.7978 129.324 8.18753Z" fill="#52CD72"/>
<path fill-rule="evenodd" clip-rule="evenodd" d="M743.32 50.7266L739.812 50.7344C739.472 50.7351 739.137 50.7328 738.81 50.7305C735.066 50.7047 732.281 50.6855 731.721 55.2906L731.681 58.1841L731.621 61.4597L731.586 65.0078C731.525 68.7459 731.467 72.4839 731.422 76.2222C731.391 78.8277 731.356 81.4332 731.317 84.0386C731.21 91.0134 731.11 97.9883 731.024 104.963L731 107L730 105C718.838 94.8848 706.711 92.549 692.172 92.7969C678.279 93.2904 665.497 99.5483 656.062 109.656L654 112C644.973 122.046 640.905 133.722 639 147C637.816 164.839 642.212 180.644 653 195C663.41 206.51 676.857 212.964 692.25 214.277C706.71 214.712 718.894 211.128 729.531 201.391L731 200L731.148 201.898L731.375 204.375C731.486 205.675 731.539 206.289 731.625 206.897C731.702 207.44 731.805 207.98 732 209C733.039 210.039 733.538 210.538 734.14 210.814C734.696 211.07 735.341 211.134 736.582 211.259L739.812 211.266L743.32 211.273L747 211.25L750.68 211.273L754.187 211.266C755.979 211.262 756.777 211.26 757.572 211.215C758.212 211.179 758.85 211.115 760 211C761.023 209.977 761.522 209.478 761.8 208.875C762.066 208.3 762.129 207.631 762.252 206.323L762.254 202.851C762.263 200.806 762.271 198.762 762.265 196.718C762.261 195.216 762.26 193.714 762.263 192.212C762.274 188.128 762.278 184.043 762.273 179.959C762.266 175.614 762.266 171.269 762.269 166.924C762.275 159.656 762.273 152.388 762.264 145.12C762.253 136.644 762.25 128.168 762.261 119.691C762.27 112.368 762.275 105.044 762.271 97.7197L762.27 95.9382V95.9264C762.267 92.1635 762.264 88.4007 762.269 84.6379C762.275 80.4644 762.279 76.291 762.269 72.1176C762.265 70.5836 762.261 69.0496 762.259 67.5156C762.263 66.0526 762.267 64.5896 762.271 63.1266L762.254 59.1494C762.253 57.1927 762.252 56.3385 762.207 55.4867C762.172 54.8269 762.11 54.1685 762 53C760.961 51.9613 760.462 51.4621 759.86 51.1858C759.304 50.9302 758.659 50.8656 757.418 50.7412L754.187 50.7344L750.68 50.7266L747 50.75L743.32 50.7266ZM733 145C730.601 135.35 725.667 129.3 717.895 123.402C707.298 116.855 690.613 117.687 681.055 125.613C673.724 132.53 669.441 140.224 668.781 150.359C668.677 161.873 670.549 170.321 678.59 178.844C686.843 186.227 694.965 187.775 705.629 187.309C714.884 186.461 721.199 181.65 727.012 174.754C733.504 165.762 734.201 155.723 733 145Z" fill="#2D1A54"/>
<path d="M342.031 50.7344C343.234 50.7318 344.437 50.7292 345.676 50.7266C346.938 50.7343 348.2 50.742 349.5 50.75C350.762 50.7423 352.024 50.7345 353.324 50.7266C354.527 50.7291 355.73 50.7317 356.969 50.7344C358.077 50.7366 359.185 50.7389 360.326 50.7412C363 51 363 51 365 53C365.278 55.5943 365.278 55.5943 365.319 58.9185C365.339 60.1596 365.359 61.4007 365.379 62.6795C365.391 64.0389 365.403 65.3984 365.414 66.7578C365.433 68.145 365.452 69.5322 365.473 70.9194C365.524 74.5723 365.564 78.2251 365.601 81.8782C365.641 85.6051 365.692 89.3318 365.742 93.0586C365.839 100.372 365.923 107.686 366 115C366.389 114.47 366.779 113.94 367.18 113.394C368.981 110.943 370.784 108.493 372.586 106.043C373.198 105.21 373.81 104.376 374.441 103.517C379.488 96.66 384.642 89.8903 389.832 83.1406C393.029 78.9752 396.173 74.7712 399.312 70.5625C410.76 55.2397 410.76 55.2397 415 51C417.981 50.7729 417.981 50.7729 421.758 50.8047C422.752 50.8089 422.752 50.8089 423.767 50.8133C425.887 50.8245 428.006 50.8496 430.125 50.875C431.561 50.885 432.997 50.8942 434.434 50.9023C437.956 50.9244 441.478 50.9589 445 51C446.281 55.4055 446.281 55.4055 445.05 58.0103C444.548 58.6591 444.045 59.308 443.527 59.9766C442.965 60.7195 442.402 61.4625 441.823 62.228C440.89 63.4145 440.89 63.4145 439.937 64.625C438.631 66.3382 437.325 68.0517 436.019 69.7656C435.347 70.6377 434.675 71.5097 433.983 72.4082C430.967 76.3508 428.051 80.3653 425.125 84.375C419.367 92.2143 413.485 99.955 407.575 107.68C402.957 113.722 398.411 119.804 394 126C397.097 131.729 400.719 136.859 404.625 142.062C405.889 143.761 407.152 145.46 408.414 147.16C409.029 147.988 409.644 148.816 410.278 149.668C412.556 152.753 414.785 155.87 417 159C420.935 164.549 424.956 170.03 429 175.5C434.749 183.277 440.404 191.112 446 199C446.469 199.583 446.938 200.167 447.421 200.768C448.123 201.664 448.123 201.664 448.84 202.578C449.493 203.381 449.493 203.381 450.16 204.2C451.338 206.723 450.727 208.382 450 211C445.59 211.249 441.183 211.429 436.768 211.549C435.269 211.599 433.772 211.667 432.275 211.754C419.936 212.454 419.936 212.454 415.403 209.05C413.313 206.474 411.649 203.876 410 201C408.942 199.469 407.875 197.946 406.797 196.43C405.778 194.914 404.763 193.395 403.75 191.875C399.648 185.794 395.45 179.831 391 174C385.943 167.37 381.196 160.561 376.539 153.645C371.248 145.443 371.248 145.443 365 138C365.002 138.9 365.004 139.8 365.007 140.727C365.027 149.188 365.042 157.65 365.052 166.111C365.057 170.462 365.064 174.812 365.075 179.163C365.086 183.358 365.092 187.553 365.095 191.748C365.097 193.352 365.1 194.956 365.106 196.56C365.113 198.799 365.114 201.038 365.113 203.277C365.116 204.554 365.118 205.831 365.12 207.146C365 210 365 210 364 211C361.866 211.1 359.73 211.131 357.594 211.133C356.293 211.134 354.992 211.135 353.652 211.137C352.972 211.135 352.291 211.133 351.589 211.13C349.509 211.125 347.428 211.13 345.348 211.137C343.397 211.135 343.397 211.135 341.406 211.133C340.203 211.132 339 211.131 337.76 211.129C335 211 335 211 334 210C333.899 207.98 333.869 205.956 333.866 203.933C333.862 202.613 333.858 201.294 333.853 199.934C333.854 198.458 333.854 196.982 333.855 195.506C333.852 193.962 333.848 192.419 333.845 190.875C333.836 186.671 333.833 182.466 333.833 178.262C333.832 174.757 333.828 171.253 333.825 167.749C333.816 159.485 333.814 151.221 333.815 142.957C333.815 134.419 333.805 125.88 333.789 117.342C333.776 110.023 333.77 102.705 333.771 95.3857C333.771 91.0093 333.768 86.633 333.758 82.2567C333.748 78.1421 333.748 74.0276 333.755 69.9129C333.756 68.3996 333.754 66.8862 333.748 65.3729C333.74 63.3132 333.745 61.2538 333.753 59.1941C333.752 58.0395 333.752 56.8848 333.751 55.6952C334.251 50.2823 337.39 50.7438 342.031 50.7344Z" fill="#2D1955"/>
<path d="M605.043 99.6953C614.283 105.855 621.284 115.607 623.539 126.639C624.061 130.446 624.14 134.176 624.129 138.009C624.132 139.178 624.132 139.178 624.135 140.371C624.139 142.931 624.136 145.491 624.133 148.051C624.133 149.833 624.134 151.616 624.136 153.399C624.137 157.125 624.135 160.851 624.13 164.577C624.125 169.364 624.128 174.15 624.134 178.937C624.138 182.612 624.136 186.288 624.134 189.964C624.133 191.73 624.134 193.496 624.136 195.262C624.139 197.721 624.135 200.179 624.129 202.638C624.131 203.373 624.133 204.108 624.135 204.865C624.114 209.886 624.114 209.886 623 211C618.693 211.253 614.376 211.185 610.062 211.187C608.234 211.206 608.234 211.206 606.369 211.225C604.626 211.228 604.626 211.228 602.848 211.23C601.775 211.235 600.703 211.239 599.598 211.243C597 211 597 211 595 209C594.748 206.08 594.748 206.08 594.745 202.291C594.741 201.601 594.737 200.911 594.734 200.201C594.727 198.7 594.724 197.199 594.726 195.699C594.727 193.319 594.714 190.939 594.697 188.559C594.65 181.791 594.626 175.023 594.619 168.255C594.614 164.116 594.59 159.977 594.554 155.838C594.544 154.265 594.542 152.692 594.547 151.119C594.617 138.058 594.617 138.058 588.219 126.977C587.652 126.531 587.084 126.085 586.5 125.625C585.933 125.164 585.366 124.702 584.781 124.227C580.268 121.119 576.633 120.662 571.187 120.687C570.501 120.671 569.815 120.655 569.107 120.639C561.829 120.632 556.003 123.12 550.691 128.165C543.725 135.725 544.427 145.477 544.461 155.121C544.451 156.673 544.439 158.225 544.425 159.776C544.393 163.835 544.382 167.892 544.378 171.951C544.37 178.47 544.334 184.989 544.286 191.508C544.274 193.783 544.274 196.057 544.276 198.332C544.27 199.718 544.263 201.104 544.255 202.49C544.254 203.702 544.253 204.914 544.252 206.163C544 209 544 209 542 211C539.51 211.259 539.51 211.259 536.406 211.266C535.294 211.268 534.181 211.271 533.035 211.273C531.869 211.266 530.702 211.258 529.5 211.25C528.333 211.258 527.167 211.265 525.965 211.273C524.852 211.271 523.74 211.268 522.594 211.266C521.57 211.263 520.545 211.261 519.49 211.259C517 211 517 211 515 209C514.745 207.044 514.745 207.044 514.739 204.604C514.732 203.68 514.725 202.756 514.718 201.804C514.72 200.787 514.723 199.77 514.725 198.723C514.72 197.655 514.715 196.586 514.71 195.485C514.696 191.939 514.697 188.394 514.699 184.848C514.695 182.391 514.691 179.935 514.686 177.479C514.679 172.325 514.679 167.171 514.684 162.017C514.69 155.401 514.673 148.785 514.65 142.169C514.635 137.095 514.634 132.021 514.637 126.947C514.637 124.507 514.632 122.067 514.622 119.628C514.609 116.22 514.616 112.814 514.628 109.406C514.62 108.392 514.612 107.377 514.604 106.332C514.615 104.942 514.615 104.942 514.626 103.523C514.626 102.718 514.625 101.912 514.625 101.081C515.095 98.4732 515.91 97.586 518 96C520.512 95.6436 520.512 95.6436 523.473 95.6719C524.537 95.677 525.601 95.6822 526.697 95.6875C527.808 95.7081 528.918 95.7287 530.062 95.75C531.177 95.7552 532.291 95.7603 533.439 95.7656C541.691 95.8457 541.691 95.8457 544 97C544.414 100.16 544.414 100.16 544.625 104.062C544.7 105.353 544.775 106.643 544.852 107.973C544.901 108.972 544.95 109.971 545 111C545.34 110.492 545.681 109.984 546.031 109.461C559.604 90.1841 585.362 87.7092 605.043 99.6953Z" fill="#2D1954"/>
<path d="M33.4766 47.9531C39.2335 51.3598 42.784 55.6871 45 62C45.4107 64.5452 45.4107 64.5452 45.6328 67.2539C45.7168 68.2646 45.8007 69.2753 45.8872 70.3166C45.9657 71.3878 46.0442 72.4589 46.125 73.5625C46.2099 74.6626 46.2948 75.7628 46.3823 76.8962C47.1025 86.9414 47.2024 96.9355 47 107C47.5517 106.678 48.1034 106.355 48.6719 106.023C53.448 103.924 59.1607 104.229 64.1445 105.582C73.4841 109.748 80.5971 118.531 87.6765 125.695C90.9742 129.02 94.3765 132.129 97.9414 135.16C101.071 137.957 103.988 140.962 106.929 143.953C109.561 146.613 112.245 149.114 115.125 151.5C127.728 162.372 136.004 177.004 137.284 193.703C137.394 197.835 137.418 201.957 137.398 206.09C137.4 207.608 137.403 209.126 137.407 210.643C137.412 213.799 137.405 216.955 137.391 220.111C137.374 224.148 137.384 228.184 137.402 232.222C137.413 235.345 137.409 238.469 137.401 241.592C137.399 243.081 137.402 244.571 137.409 246.06C137.417 248.136 137.405 250.212 137.388 252.289C137.386 253.467 137.383 254.646 137.381 255.86C136.954 259.378 136.176 261.219 134 264C130.682 266.415 127.491 266.259 123.475 266.275C122.829 266.28 122.183 266.285 121.517 266.29C119.388 266.304 117.258 266.303 115.129 266.301C113.644 266.305 112.16 266.309 110.676 266.314C107.566 266.321 104.457 266.321 101.347 266.316C97.3683 266.31 93.3896 266.327 89.4106 266.35C86.3453 266.365 83.2801 266.366 80.2148 266.363C78.7481 266.363 77.2813 266.368 75.8145 266.378C73.7609 266.391 71.7082 266.384 69.6545 266.372C67.9039 266.373 67.9039 266.373 66.1179 266.374C62.6322 265.956 60.7887 265.101 58 263C55.3516 259.027 56.1555 256.067 56.6055 251.539C58.4524 228.731 59 215 48.6602 208.941C42.7434 202.557 36.0922 196.883 29.2139 191.563C26.2414 189.254 23.6126 186.714 21 184C20.282 183.303 19.564 182.605 18.8242 181.887C14.106 177.03 10.6542 172.072 7.62501 166.062C7.30363 165.431 6.98225 164.8 6.65113 164.149C2.17457 154.821 0.514426 145.793 0.687509 135.5C0.697338 134.36 0.707167 133.22 0.717294 132.046C0.897703 118.777 1.39641 105.511 1.87501 92.25C1.93355 90.5444 1.93355 90.5444 1.99326 88.8044C2.10855 85.5202 2.236 82.2367 2.3672 78.9531C2.40065 77.9676 2.4341 76.9821 2.46856 75.9667C2.8837 66.2717 4.60383 58.5713 11 51C17.2298 45.7873 25.8657 45.024 33.4766 47.9531ZM18.125 60.375C12.6719 67.1112 13.7758 77.2845 13.4649 85.6211C13.4219 86.7199 13.3789 87.8186 13.3346 88.9507C13.2448 91.2694 13.1567 93.5882 13.0701 95.907C12.9391 99.3959 12.801 102.884 12.6621 106.373C12.2755 116.332 11.9157 126.29 11.8711 136.258C11.8652 136.96 11.8593 137.663 11.8533 138.386C11.885 154.412 19.3395 166.128 30.214 177.274C32.78 179.754 35.4999 182.025 38.2417 184.307C66.6823 207.995 66.6823 207.995 68.4375 224.34C69.3335 234.29 67.8808 244.04 67 254C86.14 254 105.28 254 125 254C125.146 242.409 125.146 242.409 125.244 230.818C125.274 226.081 125.309 221.343 125.377 216.606C125.432 212.781 125.462 208.956 125.474 205.13C125.484 203.681 125.501 202.231 125.529 200.783C125.818 184.79 121.172 173.544 110.227 162.077C107.595 159.359 104.921 156.685 102.23 154.024C100.564 152.376 98.9053 150.72 97.2481 149.062C92.1982 144.03 87.1023 139.105 81.679 134.472C79.1564 132.26 76.881 129.862 74.5625 127.437C66.4852 118.971 66.4852 118.971 55.75 115.375C51.5654 116.072 49.8897 116.94 47 120C44.7115 123.269 44.5284 126.07 45 130C48.2046 135.718 52.7583 139.917 57.4492 144.434C59.1184 146.068 60.787 147.703 62.4551 149.338C65.0757 151.896 67.7006 154.45 70.3362 156.993C72.8874 159.46 75.4194 161.945 77.9492 164.434C79.1367 165.565 79.1367 165.565 80.3481 166.72C86.3649 172.679 86.3649 172.679 87.0657 176.973C87 180 87 180 86 181C82.6526 181.331 80.6887 181.451 77.8315 179.58C77.1671 178.914 76.5027 178.249 75.8181 177.563C75.0539 176.811 74.2897 176.059 73.5023 175.285C72.6959 174.46 71.8895 173.635 71.0586 172.785C70.2133 171.941 69.368 171.097 68.4971 170.227C66.7107 168.436 64.9316 166.637 63.1594 164.832C60.4614 162.087 57.738 159.369 55.0098 156.654C53.2745 154.908 51.5407 153.16 49.8086 151.41C49.0002 150.604 48.1917 149.797 47.3588 148.966C41.9612 143.433 36.7511 137.624 35.4766 129.777C35.5256 128.84 35.5745 127.903 35.625 126.937C35.6585 125.998 35.692 125.058 35.7266 124.09C35.9255 121.841 36.2066 119.6 36.5361 117.367C37.1004 112.876 36.9598 108.548 36.6953 104.039C36.6519 103.208 36.6084 102.378 36.5637 101.522C36.4711 99.7756 36.3751 98.0293 36.2759 96.2832C36.1258 93.6397 35.9858 90.9957 35.8477 88.3516C36.2798 72.4145 36.2798 72.4145 30 59C25.5136 56.7568 21.9096 57.2486 18.125 60.375Z" fill="#2E1D54"/>
<path d="M275.656 48.0078C281.691 51.5281 284.771 56.4714 287 63C288.119 68.4022 288.312 73.7899 288.535 79.2851C288.578 80.2865 288.622 81.2878 288.666 82.3196C288.804 85.567 288.935 88.8146 289.062 92.0625C289.128 93.7176 289.128 93.7176 289.194 95.4062C291.744 161.055 291.744 161.055 268.835 186.045C260.945 194.451 252.845 202.707 244.046 210.166C243.371 210.771 242.696 211.376 242 212C241.488 212.399 240.975 212.797 240.447 213.208C237.988 215.303 236.27 216.926 235.467 220.119C235.277 222.631 235.273 225.08 235.336 227.598C235.33 228.965 235.33 228.965 235.323 230.361C235.312 233.262 235.34 236.161 235.375 239.062C235.399 241.967 235.414 244.87 235.405 247.775C235.401 249.578 235.415 251.381 235.452 253.184C235.45 257.326 235.35 259.441 233.1 263.029C229.59 266.323 227.348 266.138 222.61 266.177C221.955 266.184 221.299 266.19 220.624 266.197C218.451 266.217 216.278 266.228 214.105 266.238C212.992 266.244 212.992 266.244 211.857 266.251C207.928 266.271 204 266.286 200.071 266.295C196.016 266.306 191.961 266.341 187.905 266.38C184.785 266.406 181.665 266.415 178.545 266.418C177.05 266.423 175.555 266.435 174.061 266.453C171.966 266.478 169.873 266.477 167.778 266.47C165.992 266.479 165.992 266.479 164.169 266.488C160.365 265.902 158.722 264.667 156 262C154.55 259.1 154.841 256.55 154.807 253.31C154.799 252.622 154.791 251.933 154.782 251.224C154.757 248.937 154.741 246.65 154.727 244.363C154.721 243.578 154.716 242.794 154.71 241.985C154.684 237.818 154.664 233.651 154.65 229.484C154.637 226.059 154.609 222.635 154.568 219.211C154.518 215.059 154.494 210.907 154.487 206.755C154.48 205.184 154.465 203.614 154.441 202.044C154.172 183.561 159.364 168.786 172.368 155.245C175.846 151.701 179.39 148.225 182.937 144.75C184.38 143.319 185.822 141.886 187.264 140.453C188.663 139.067 190.064 137.681 191.465 136.297C192.102 135.668 192.738 135.038 193.394 134.39C197.219 130.644 201.149 127.065 205.213 123.581C207.433 121.617 209.472 119.518 211.512 117.37C222.798 105.534 222.798 105.534 231.117 104.68C235.346 104.609 238.972 104.657 243 106C243.065 104.75 243.129 103.5 243.196 102.211C243.444 97.5321 243.721 92.8549 244.007 88.1777C244.126 86.1609 244.238 84.1436 244.341 82.1259C245.573 58.2898 245.573 58.2898 253.018 51.0327C259.484 45.6241 267.894 45.0628 275.656 48.0078ZM260.125 60.375C257.498 63.6205 256.874 65.2578 256.611 69.3227C256.521 70.6652 256.521 70.6652 256.429 72.0348C256.369 73.0056 256.308 73.9763 256.246 74.9765C256.181 75.9757 256.116 76.975 256.049 78.0044C255.911 80.1244 255.776 82.2445 255.643 84.3647C255.44 87.5911 255.229 90.817 255.018 94.0429C254.885 96.1041 254.753 98.1653 254.621 100.227C254.559 101.185 254.496 102.144 254.432 103.131C253.318 112.306 253.318 112.306 255 121C255.175 122.891 255.267 124.789 255.312 126.687C255.369 128.209 255.369 128.209 255.426 129.762C254.323 138.146 247.797 143.684 242.105 149.398C241.24 150.274 240.374 151.15 239.482 152.052C237.657 153.893 235.827 155.73 233.993 157.563C231.191 160.371 228.415 163.202 225.639 166.035C223.858 167.824 222.076 169.612 220.293 171.398C219.467 172.246 218.64 173.094 217.789 173.968C211.286 180.395 211.286 180.395 206.919 181.038C205.474 181.019 205.474 181.019 204 181C203.479 178.197 203.32 176.722 204 174C206.498 170.509 209.577 167.659 212.68 164.707C213.563 163.839 214.446 162.97 215.356 162.075C217.7 159.774 220.059 157.488 222.426 155.21C225.758 151.996 229.066 148.757 232.373 145.517C234.133 143.796 235.901 142.08 237.675 140.372C238.475 139.594 239.276 138.816 240.101 138.015C240.807 137.334 241.513 136.654 242.241 135.952C244.803 133.109 245.881 130.915 246.375 127.125C245.899 123.155 244.47 121.105 242 118C237.865 115.243 234.84 115.102 230 116C223.315 120.014 217.831 125.942 212.437 131.5C207.765 136.288 203.051 140.898 197.98 145.262C184.01 157.522 167.836 172.267 165.568 191.701C165.426 195.714 165.435 199.694 165.512 203.707C165.521 205.168 165.528 206.629 165.533 208.09C165.552 211.89 165.601 215.689 165.657 219.488C165.717 224.071 165.74 228.654 165.769 233.238C165.817 240.159 165.913 247.078 166 254C185.14 254 204.28 254 224 254C224.052 241.196 224.052 241.196 224.028 228.393C224.123 213.788 224.123 213.788 228 209.285C229.305 208.156 230.64 207.062 232 206C233.461 204.523 234.907 203.032 236.34 201.527C237.87 199.995 239.402 198.465 240.937 196.937C241.697 196.174 242.457 195.41 243.24 194.623C247.427 190.444 251.711 186.46 256.189 182.597C267.918 172.25 277.505 159.53 279.268 143.574C279.37 141.063 279.362 138.576 279.312 136.062C279.303 135.088 279.294 134.114 279.285 133.11C279.014 115.525 278.07 97.933 277.119 80.3744C277.008 78.1589 276.925 75.9444 276.851 73.7275C276.796 72.4897 276.741 71.2519 276.684 69.9765C276.647 68.928 276.61 67.8795 276.572 66.7993C275.857 63.3006 274.439 61.5643 272 59C267.514 56.7567 263.91 57.2486 260.125 60.375Z" fill="#2E1B4D"/>
<path d="M129.324 8.18753C135.525 12.3875 140.741 17.7052 146 23C146.766 22.0564 146.766 22.0564 147.547 21.0938C157.111 9.83367 168.187 2.44464 183.066 0.625031C195.229 0.117609 207.161 4.8572 216.188 12.9649C226.856 24.1388 229.416 35.5051 229.211 50.293C229.041 55.6298 228.18 60.1123 226 65C225.598 65.9488 225.196 66.8975 224.781 67.875C219.268 79.8815 210.279 89.0285 200.996 98.2344C200.073 99.1567 199.151 100.079 198.2 101.029C196.266 102.962 194.329 104.891 192.389 106.817C189.924 109.265 187.466 111.719 185.01 114.176C182.633 116.552 180.252 118.924 177.871 121.297C177 122.167 176.129 123.037 175.232 123.933C170.308 128.819 165.275 133.497 160 138C159.188 138.719 158.376 139.439 157.539 140.18C156.907 140.739 156.276 141.299 155.625 141.875C154.978 142.45 154.331 143.025 153.664 143.617C150.391 146.337 147.57 146.467 143.426 146.395C135.984 145.184 130.412 137.53 125.418 132.422C123.441 130.442 121.45 128.611 119.313 126.813C115.152 123.262 111.346 119.383 107.5 115.5C101.915 109.825 101.915 109.825 96 104.5C79.0232 90.0605 62.7984 72.3833 60.6484 49.211C60.0324 36.9746 63.0641 26.4777 71.125 16.9922C87.3298 -0.225336 108.62 -3.7978 129.324 8.18753ZM79.4648 24.0039C73.2832 32.4275 71.0987 40.6861 72 51C75.0142 65.9802 83.5875 76.3388 94 87C94.5727 87.5878 95.1453 88.1757 95.7354 88.7813C101.619 94.7956 107.517 100.729 113.945 106.164C117.298 109.159 120.412 112.392 123.57 115.589C126.959 119.004 130.442 122.229 134.125 125.328C136.997 127.889 139.563 130.739 142.141 133.594C143.869 135.237 143.869 135.237 145.905 134.783C148.369 133.862 149.564 132.766 151.383 130.875C151.993 130.251 152.602 129.627 153.23 128.984C159.118 122.817 165.743 117.463 171.815 111.491C172.55 110.772 173.285 110.054 174.042 109.313C175.22 108.143 175.22 108.143 176.422 106.949C177.241 106.139 178.06 105.33 178.903 104.495C180.637 102.776 182.369 101.053 184.098 99.3279C186.714 96.7233 189.349 94.1379 191.984 91.5528C205.258 78.4078 218.107 64.8243 218.625 45.0625C218.548 36.152 215.782 29.3056 209.914 22.625C202.153 15.2179 194.801 12.284 184.085 12.3972C170.208 13.1061 160.646 22.8365 151.691 32.4883C150.092 34.3 148.525 36.1258 147 38C143.627 37.718 142.294 37.3105 139.93 34.8125C139.252 33.8844 138.574 32.9563 137.875 32C130.152 22.1511 121.196 14.147 108.461 12.5586C96.9654 12.0084 87.3182 15.3825 79.4648 24.0039Z" fill="#2D1C51"/>
<path d="M852 96C852.356 98.5061 852.356 98.5061 852.328 101.629C852.323 102.746 852.318 103.863 852.313 105.014C852.292 106.185 852.271 107.356 852.25 108.563C852.245 109.737 852.24 110.912 852.234 112.123C852.154 120.846 852.154 120.846 851 122C849.631 122.166 848.255 122.276 846.879 122.359C831.537 123.017 831.537 123.017 819.148 131.117C814.753 137.304 812.765 143.102 812.697 150.724C812.68 152.042 812.664 153.359 812.647 154.717C812.638 156.141 812.63 157.564 812.621 158.988C812.605 160.457 812.588 161.926 812.57 163.395C812.524 167.246 812.489 171.097 812.457 174.949C812.405 181.131 812.341 187.313 812.269 193.495C812.246 195.656 812.23 197.817 812.214 199.978C812.201 201.28 812.187 202.582 812.174 203.923C812.164 205.075 812.155 206.227 812.145 207.415C812 210 812 210 811 211C806.694 211.253 802.376 211.185 798.063 211.188C796.234 211.206 796.234 211.206 794.369 211.225C792.626 211.228 792.626 211.228 790.848 211.23C789.239 211.237 789.239 211.237 787.598 211.243C785 211 785 211 783 209C782.748 207.026 782.748 207.026 782.746 204.559C782.74 203.625 782.735 202.691 782.729 201.729C782.735 200.188 782.735 200.188 782.741 198.615C782.738 197.536 782.734 196.456 782.731 195.343C782.722 191.76 782.728 188.177 782.734 184.594C782.733 182.113 782.731 179.632 782.729 177.151C782.725 171.278 782.732 165.405 782.743 159.532C782.75 154.843 782.748 150.154 782.739 145.465C782.728 139.012 782.726 132.558 782.732 126.104C782.734 123.638 782.732 121.173 782.727 118.707C782.722 115.266 782.73 111.826 782.741 108.385C782.737 107.357 782.733 106.33 782.729 105.271C782.735 104.337 782.74 103.403 782.746 102.441C782.747 101.627 782.748 100.813 782.748 99.974C783 98 783 98 785 96C787.383 95.7412 787.383 95.7412 790.34 95.7344C791.934 95.7305 791.934 95.7305 793.561 95.7266C794.675 95.7343 795.789 95.742 796.938 95.75C798.048 95.7423 799.159 95.7345 800.303 95.7266C801.367 95.7291 802.431 95.7317 803.527 95.7344C804.993 95.7378 804.993 95.7378 806.488 95.7412C809 96 809 96 812 98C812.512 101.258 812.512 101.258 812.688 105.125C812.753 106.406 812.819 107.688 812.887 109.008C812.924 109.995 812.961 110.983 813 112C813.34 111.42 813.681 110.84 814.031 110.242C819.138 102.012 824.779 96.9515 834.27 94.4649C840.31 93.4366 846.772 92.5146 852 96Z" fill="#2C1953"/>
<path d="M472.594 95.7344C473.706 95.7318 474.819 95.7292 475.965 95.7266C477.131 95.7343 478.298 95.742 479.5 95.75C480.667 95.7423 481.833 95.7345 483.035 95.7266C484.148 95.7291 485.26 95.7317 486.406 95.7344C487.43 95.7366 488.455 95.7389 489.51 95.7412C492 96 492 96 494 98C494.252 99.974 494.252 99.974 494.254 102.441C494.26 103.375 494.265 104.309 494.271 105.271C494.267 106.298 494.263 107.326 494.259 108.385C494.262 109.464 494.266 110.544 494.269 111.657C494.278 115.24 494.272 118.823 494.266 122.406C494.267 124.887 494.269 127.368 494.271 129.849C494.275 135.722 494.268 141.595 494.257 147.468C494.25 152.157 494.252 156.846 494.261 161.535C494.272 167.988 494.274 174.442 494.268 180.896C494.266 183.362 494.268 185.827 494.273 188.293C494.278 191.734 494.27 195.174 494.259 198.615C494.263 199.643 494.267 200.67 494.271 201.729C494.265 202.663 494.26 203.597 494.254 204.559C494.253 205.373 494.252 206.187 494.252 207.026C494 209 494 209 492 211C489.51 211.259 489.51 211.259 486.406 211.266C485.294 211.268 484.181 211.271 483.035 211.273C481.869 211.266 480.702 211.258 479.5 211.25C478.333 211.258 477.167 211.265 475.965 211.273C474.852 211.271 473.74 211.268 472.594 211.266C471.57 211.263 470.545 211.261 469.49 211.259C467 211 467 211 465 209C464.748 207.026 464.748 207.026 464.746 204.559C464.74 203.625 464.735 202.691 464.729 201.729C464.735 200.188 464.735 200.188 464.741 198.615C464.738 197.536 464.734 196.456 464.731 195.343C464.722 191.76 464.728 188.177 464.734 184.594C464.733 182.113 464.731 179.632 464.729 177.151C464.725 171.278 464.732 165.405 464.743 159.532C464.75 154.843 464.748 150.154 464.739 145.465C464.728 139.012 464.726 132.558 464.732 126.104C464.734 123.638 464.732 121.173 464.727 118.707C464.722 115.266 464.73 111.826 464.741 108.385C464.737 107.357 464.733 106.33 464.729 105.271C464.735 104.337 464.74 103.403 464.746 102.441C464.747 101.627 464.748 100.813 464.748 99.974C465.347 95.282 468.698 95.743 472.594 95.7344Z" fill="#2C1852"/>
<path d="M486.293 50.8711C491.008 53.5693 494.36 56.743 496 62C496.902 67.26 496.592 71.6571 494 76.375C490.667 81.0125 486.571 83.3343 480.988 84.375C475.683 84.7085 471.229 83.192 467 80C463.3 76.1119 461.69 72.2927 461.438 66.9375C461.782 60.7119 463.954 56.8959 468.562 52.625C473.787 49.1422 480.421 48.6403 486.293 50.8711Z" fill="#2C1A52"/>
</svg>
